<?xml version="1.0" encoding="UTF-8" standalone="no"?>
<svg width="512"
     height="512"
     viewBox="0 0 135.46666 135.46667"
     version="1.1"
     id="svg8"
     xmlns="http://www.w3.org/2000/svg">
    <defs id="defs2"/>
    <g id="layer1">
        <g id="g931" transform="translate(0.99433284,-3.8185349)">
            <path style="color:#000000;fill:#000000;stroke-width:3.77953;paint-order:stroke fill markers"
                  d="m 315.99609,16.003906 c -86.07672,0 -158.52859,61.231225 -175.98047,142.287114 -3.4717,-1.00653 -7.08838,-1.55836 -10.76171,-1.5918 -0.26888,-0.003 -0.53778,-0.003 -0.80664,0 h -0.0195 -0.0215 c -10.43343,0.12718 -20.4262,4.3391 -27.80273,11.71875 l -70.160161,70.16015 c -15.419202,15.41985 -15.419202,41.14853 0,56.56836 l 0.002,0.002 c 4.262421,4.2615 9.312932,7.34063 14.714844,9.24609 l -22.771484,22.77149 c -15.4232964,15.42035 -15.4232964,41.15385 0,56.57421 0,0 0.002,0.002 0.002,0.002 0,0 0.002,0.002 0.002,0.002 4.135007,4.13365 9.014772,7.14789 14.234375,9.06445 l -16.572265,16.57227 c -15.4239922,15.42104 -15.4233563,41.15604 0.002,56.57617 0,0 0.002,0 0.002,0 0,0 0,0.002 0,0.002 15.419589,15.41413 41.141839,15.41353 56.560547,-0.002 v -0.002 l 63.902334,-63.90235 c 1.8809,5.67705 5.04636,10.99151 9.5,15.44532 0.30231,0.30229 0.60985,0.59628 0.91993,0.88672 -0.19533,0.18758 -0.3902,0.37646 -0.58203,0.56835 l -37.77735,37.77149 c -15.417908,15.41851 -15.418926,41.14417 -0.004,56.56445 0,0 0.002,0.002 0.002,0.002 0,0 0.002,0.002 0.002,0.002 15.42168,15.42467 41.15821,15.42325 56.57813,-0.004 l 22.24609,-22.24609 c 1.83015,3.61712 4.23187,7.00037 7.22266,9.99219 0,0 0.002,0.002 0.002,0.002 0,0 0.002,0.002 0.002,0.002 15.42168,15.42463 41.15821,15.42322 56.57813,-0.004 l 84.00195,-84.00977 c 11.68597,-11.68645 14.50607,-29.29025 8.47852,-43.84375 84.02412,-15.08478 148.30468,-88.99129 148.30468,-177.18555 0,-99.001456 -80.99993,-179.992188 -180,-179.992184 z"
                  transform="scale(0.26458333)"
                  id="path2699"/>
            <path style="color:#000000;fill:#ffffff;stroke-width:12.7;paint-order:stroke fill markers"
                  d="m 83.607422,10.583984 c -22.745389,0 -41.273438,18.528049 -41.273438,41.273438 0,22.745388 18.528049,41.275391 41.273438,41.27539 22.745388,2e-6 41.275388,-18.530001 41.275388,-41.27539 0,-22.74539 -18.53,-41.273439 -41.275388,-41.273438 z M 79.375,19.474609 V 47.625 H 51.224609 C 53.129658,32.890656 64.640656,21.379658 79.375,19.474609 Z m 8.466797,0 C 102.57581,21.379932 114.08717,32.890887 115.99219,47.625 H 87.841797 Z M 51.224609,56.091797 H 79.375 v 28.15039 C 64.640887,82.337168 53.129933,70.825812 51.224609,56.091797 Z m 36.617188,0 h 28.150393 c -1.9053,14.733784 -13.41661,26.245098 -28.150393,28.15039 z"
                  id="path2701"/>
            <path style="color:#000000;fill:#ffffff;stroke-width:12.7;stroke-linecap:round;paint-order:markers stroke fill"
                  d="m 47.302538,114.09743 a 4.2333298,4.2333298 0 0 0 -3.029272,1.24023 l -9.995773,9.99422 a 4.2333298,4.2333298 0 0 0 0,5.98672 4.2333298,4.2333298 0 0 0 5.988267,0 l 9.994219,-9.99422 a 4.2333298,4.2333298 0 0 0 0,-5.98672 4.2333298,4.2333298 0 0 0 -2.957441,-1.24023 z"
                  id="path2910"/>
            <path style="color:#000000;fill:#ffffff;stroke-width:12.7;stroke-linecap:round;paint-order:markers stroke fill"
                  d="m 82.304537,98.620851 a 4.2333349,4.2333349 0 0 0 -3.031342,1.240235 L 57.045097,122.0897 a 4.2333349,4.2333349 0 0 0 0,5.98672 4.2333349,4.2333349 0 0 0 5.988265,0 l 22.22655,-22.22862 a 4.2333349,4.2333349 0 0 0 0,-5.986714 4.2333349,4.2333349 0 0 0 -2.955375,-1.240235 z"
                  id="path2902"/>
            <path style="color:#000000;fill:#ffffff;stroke-width:12.7;stroke-linecap:round;paint-order:markers stroke fill"
                  d="m 36.728622,87.577046 a 4.2333298,4.2333298 0 0 0 -2.941939,1.238166 L 9.7964165,112.80548 a 4.2333298,4.2333298 0 0 0 0,5.98826 4.2333298,4.2333298 0 0 0 5.9861975,0 L 39.772881,94.803479 a 4.2333298,4.2333298 0 0 0 0,-5.988267 4.2333298,4.2333298 0 0 0 -2.954859,-1.238166 4.2333298,4.2333298 0 0 0 -0.0894,0 z"
                  id="path2918"/>
            <path style="color:#000000;fill:#ffffff;stroke-width:12.7;stroke-linecap:round;paint-order:markers stroke fill"
                  d="m 55.750602,90.121112 a 4.2333298,4.2333298 0 0 0 -2.941939,1.238168 l -8.625313,8.626864 a 4.2333298,4.2333298 0 0 0 0,5.986716 4.2333298,4.2333298 0 0 0 5.986713,0 l 8.626864,-8.625316 a 4.2333298,4.2333298 0 0 0 0,-5.988264 4.2333298,4.2333298 0 0 0 -2.956925,-1.238168 4.2333298,4.2333298 0 0 0 -0.0894,0 z"
                  id="path2894"/>
            <path style="color:#000000;fill:#ffffff;stroke-width:12.7;stroke-linecap:round;paint-order:markers stroke fill"
                  d="M 30.969685,72.199211 A 4.2333349,4.2333349 0 0 0 28.02723,73.439445 L 10.413835,91.052839 a 4.2333349,4.2333349 0 0 0 0,5.988265 4.2333349,4.2333349 0 0 0 5.986714,0 L 34.013428,79.425643 a 4.2333349,4.2333349 0 0 0 0,-5.986198 4.2333349,4.2333349 0 0 0 -2.954859,-1.240234 4.2333349,4.2333349 0 0 0 -0.08888,0 z"
                  id="path2926"/>
            <path style="color:#000000;fill:#ffffff;stroke-width:12.7;stroke-linecap:round;paint-order:markers stroke fill"
                  d="m 34.051668,47.809523 a 4.2333349,4.2333349 0 0 0 -2.942457,1.240235 L 12.54497,67.613998 a 4.2333349,4.2333349 0 0 0 0,5.986717 4.2333349,4.2333349 0 0 0 5.986198,0 L 37.095927,55.035956 a 4.2333349,4.2333349 0 0 0 0,-5.986198 4.2333349,4.2333349 0 0 0 -2.955375,-1.240235 4.2333349,4.2333349 0 0 0 -0.08888,0 z"
                  id="path2934"/>
        </g>
    </g>
</svg>
